<mxfile host="app.diagrams.net" modified="2023-12-15T23:11:21.836Z" agent="Mozilla/5.0 (Windows NT 10.0; Win64; x64) AppleWebKit/537.36 (KHTML, like Gecko) Chrome/120.0.0.0 Safari/537.36 Edg/120.0.0.0" etag="G_uxWEBLhhCCvm2YG9La" version="22.0.0" type="device">
  <diagram name="Página-1" id="p8yqgjb2Yc-0J6dq3kDB">
    <mxGraphModel dx="996" dy="775" grid="1" gridSize="10" guides="1" tooltips="1" connect="1" arrows="1" fold="1" page="1" pageScale="1" pageWidth="827" pageHeight="1169" math="0" shadow="0">
      <root>
        <mxCell id="0" />
        <mxCell id="1" parent="0" />
        <mxCell id="9-opfvf0JfFSHaEofE37-22" style="edgeStyle=orthogonalEdgeStyle;rounded=0;orthogonalLoop=1;jettySize=auto;html=1;exitX=0.5;exitY=1;exitDx=0;exitDy=0;entryX=0.5;entryY=0;entryDx=0;entryDy=0;" edge="1" parent="1" source="9-opfvf0JfFSHaEofE37-1" target="9-opfvf0JfFSHaEofE37-6">
          <mxGeometry relative="1" as="geometry" />
        </mxCell>
        <mxCell id="9-opfvf0JfFSHaEofE37-1" value="Realizar a leitura da concentração de oxigênio" style="rounded=0;whiteSpace=wrap;html=1;" vertex="1" parent="1">
          <mxGeometry x="600" y="160" width="170" height="110" as="geometry" />
        </mxCell>
        <mxCell id="9-opfvf0JfFSHaEofE37-2" value="" style="endArrow=classic;html=1;rounded=0;" edge="1" parent="1">
          <mxGeometry width="50" height="50" relative="1" as="geometry">
            <mxPoint x="10" y="280" as="sourcePoint" />
            <mxPoint x="320" y="215" as="targetPoint" />
            <Array as="points">
              <mxPoint x="240" y="280" />
              <mxPoint x="240" y="215" />
            </Array>
          </mxGeometry>
        </mxCell>
        <mxCell id="9-opfvf0JfFSHaEofE37-3" value="&lt;font style=&quot;font-size: 14px;&quot;&gt;Energia&lt;/font&gt;" style="edgeLabel;html=1;align=center;verticalAlign=middle;resizable=0;points=[];" vertex="1" connectable="0" parent="9-opfvf0JfFSHaEofE37-2">
          <mxGeometry x="0.0545" y="3" relative="1" as="geometry">
            <mxPoint x="-148" y="-17" as="offset" />
          </mxGeometry>
        </mxCell>
        <mxCell id="9-opfvf0JfFSHaEofE37-4" value="" style="endArrow=classic;html=1;rounded=0;dashed=1;entryX=0;entryY=0.75;entryDx=0;entryDy=0;" edge="1" parent="1" target="9-opfvf0JfFSHaEofE37-8">
          <mxGeometry width="50" height="50" relative="1" as="geometry">
            <mxPoint x="10" y="350" as="sourcePoint" />
            <mxPoint x="290" y="350" as="targetPoint" />
            <Array as="points">
              <mxPoint x="280" y="350" />
              <mxPoint x="280" y="243" />
            </Array>
          </mxGeometry>
        </mxCell>
        <mxCell id="9-opfvf0JfFSHaEofE37-5" value="&lt;font style=&quot;font-size: 14px;&quot;&gt;Concentração&lt;br&gt;&amp;nbsp;de oxigênio&lt;/font&gt;" style="edgeLabel;html=1;align=center;verticalAlign=middle;resizable=0;points=[];" vertex="1" connectable="0" parent="9-opfvf0JfFSHaEofE37-4">
          <mxGeometry x="0.0545" y="3" relative="1" as="geometry">
            <mxPoint x="-160" y="-28" as="offset" />
          </mxGeometry>
        </mxCell>
        <mxCell id="9-opfvf0JfFSHaEofE37-21" value="" style="edgeStyle=orthogonalEdgeStyle;rounded=0;orthogonalLoop=1;jettySize=auto;html=1;" edge="1" parent="1" source="9-opfvf0JfFSHaEofE37-6" target="9-opfvf0JfFSHaEofE37-7">
          <mxGeometry relative="1" as="geometry" />
        </mxCell>
        <mxCell id="9-opfvf0JfFSHaEofE37-23" style="edgeStyle=orthogonalEdgeStyle;rounded=0;orthogonalLoop=1;jettySize=auto;html=1;exitX=0.25;exitY=0;exitDx=0;exitDy=0;" edge="1" parent="1" source="9-opfvf0JfFSHaEofE37-6" target="9-opfvf0JfFSHaEofE37-8">
          <mxGeometry relative="1" as="geometry">
            <Array as="points">
              <mxPoint x="380" y="360" />
            </Array>
          </mxGeometry>
        </mxCell>
        <mxCell id="9-opfvf0JfFSHaEofE37-6" value="ESP32" style="rounded=0;whiteSpace=wrap;html=1;" vertex="1" parent="1">
          <mxGeometry x="320" y="360" width="170" height="110" as="geometry" />
        </mxCell>
        <mxCell id="9-opfvf0JfFSHaEofE37-26" value="" style="edgeStyle=orthogonalEdgeStyle;rounded=0;orthogonalLoop=1;jettySize=auto;html=1;" edge="1" parent="1" source="9-opfvf0JfFSHaEofE37-7" target="9-opfvf0JfFSHaEofE37-25">
          <mxGeometry relative="1" as="geometry" />
        </mxCell>
        <mxCell id="9-opfvf0JfFSHaEofE37-7" value="Alarme" style="rounded=0;whiteSpace=wrap;html=1;" vertex="1" parent="1">
          <mxGeometry x="320" y="560" width="170" height="110" as="geometry" />
        </mxCell>
        <mxCell id="9-opfvf0JfFSHaEofE37-9" value="" style="edgeStyle=orthogonalEdgeStyle;rounded=0;orthogonalLoop=1;jettySize=auto;html=1;" edge="1" parent="1" source="9-opfvf0JfFSHaEofE37-8" target="9-opfvf0JfFSHaEofE37-1">
          <mxGeometry relative="1" as="geometry" />
        </mxCell>
        <mxCell id="9-opfvf0JfFSHaEofE37-8" value="Sensor lambda" style="rounded=0;whiteSpace=wrap;html=1;" vertex="1" parent="1">
          <mxGeometry x="320" y="160" width="170" height="110" as="geometry" />
        </mxCell>
        <mxCell id="9-opfvf0JfFSHaEofE37-10" value="" style="endArrow=none;html=1;rounded=0;" edge="1" parent="1">
          <mxGeometry width="50" height="50" relative="1" as="geometry">
            <mxPoint x="240" y="430" as="sourcePoint" />
            <mxPoint x="240" y="280" as="targetPoint" />
          </mxGeometry>
        </mxCell>
        <mxCell id="9-opfvf0JfFSHaEofE37-11" value="" style="endArrow=classic;html=1;rounded=0;entryX=0;entryY=0.5;entryDx=0;entryDy=0;" edge="1" parent="1" target="9-opfvf0JfFSHaEofE37-6">
          <mxGeometry width="50" height="50" relative="1" as="geometry">
            <mxPoint x="240" y="415" as="sourcePoint" />
            <mxPoint x="290" y="380" as="targetPoint" />
          </mxGeometry>
        </mxCell>
        <mxCell id="9-opfvf0JfFSHaEofE37-12" value="" style="endArrow=classic;html=1;rounded=0;entryX=0;entryY=0.5;entryDx=0;entryDy=0;" edge="1" parent="1">
          <mxGeometry width="50" height="50" relative="1" as="geometry">
            <mxPoint x="240" y="620" as="sourcePoint" />
            <mxPoint x="320" y="620" as="targetPoint" />
          </mxGeometry>
        </mxCell>
        <mxCell id="9-opfvf0JfFSHaEofE37-16" value="" style="endArrow=none;html=1;rounded=0;" edge="1" parent="1">
          <mxGeometry width="50" height="50" relative="1" as="geometry">
            <mxPoint x="240" y="620" as="sourcePoint" />
            <mxPoint x="240" y="430" as="targetPoint" />
          </mxGeometry>
        </mxCell>
        <mxCell id="9-opfvf0JfFSHaEofE37-17" value="Aplicativo web&lt;br&gt;(Concentração aceitável)&lt;br&gt;(Banco de dados)" style="rounded=0;whiteSpace=wrap;html=1;" vertex="1" parent="1">
          <mxGeometry x="600" y="360" width="170" height="110" as="geometry" />
        </mxCell>
        <mxCell id="9-opfvf0JfFSHaEofE37-19" value="" style="edgeStyle=orthogonalEdgeStyle;rounded=0;orthogonalLoop=1;jettySize=auto;html=1;" edge="1" parent="1">
          <mxGeometry relative="1" as="geometry">
            <mxPoint x="490" y="390" as="sourcePoint" />
            <mxPoint x="600" y="390" as="targetPoint" />
          </mxGeometry>
        </mxCell>
        <mxCell id="9-opfvf0JfFSHaEofE37-20" value="" style="edgeStyle=orthogonalEdgeStyle;rounded=0;orthogonalLoop=1;jettySize=auto;html=1;" edge="1" parent="1">
          <mxGeometry relative="1" as="geometry">
            <mxPoint x="600" y="430" as="sourcePoint" />
            <mxPoint x="490" y="430" as="targetPoint" />
          </mxGeometry>
        </mxCell>
        <mxCell id="9-opfvf0JfFSHaEofE37-25" value="Acionar alarme" style="rounded=0;whiteSpace=wrap;html=1;" vertex="1" parent="1">
          <mxGeometry x="600" y="560" width="170" height="110" as="geometry" />
        </mxCell>
        <mxCell id="9-opfvf0JfFSHaEofE37-28" value="" style="edgeStyle=orthogonalEdgeStyle;rounded=0;orthogonalLoop=1;jettySize=auto;html=1;" edge="1" parent="1">
          <mxGeometry relative="1" as="geometry">
            <mxPoint x="770" y="414.5" as="sourcePoint" />
            <mxPoint x="1050" y="415" as="targetPoint" />
          </mxGeometry>
        </mxCell>
        <mxCell id="9-opfvf0JfFSHaEofE37-29" value="&lt;font style=&quot;font-size: 14px;&quot;&gt;Concentração&lt;br&gt;&amp;nbsp;de oxigênio&lt;/font&gt;" style="edgeLabel;html=1;align=center;verticalAlign=middle;resizable=0;points=[];" vertex="1" connectable="0" parent="1">
          <mxGeometry x="980" y="390" as="geometry" />
        </mxCell>
        <mxCell id="9-opfvf0JfFSHaEofE37-30" value="" style="endArrow=none;dashed=1;html=1;rounded=0;" edge="1" parent="1">
          <mxGeometry width="50" height="50" relative="1" as="geometry">
            <mxPoint x="180" y="700" as="sourcePoint" />
            <mxPoint x="180" y="120" as="targetPoint" />
          </mxGeometry>
        </mxCell>
        <mxCell id="9-opfvf0JfFSHaEofE37-31" value="" style="endArrow=none;dashed=1;html=1;rounded=0;" edge="1" parent="1">
          <mxGeometry width="50" height="50" relative="1" as="geometry">
            <mxPoint x="870" y="700" as="sourcePoint" />
            <mxPoint x="870" y="120" as="targetPoint" />
          </mxGeometry>
        </mxCell>
        <mxCell id="9-opfvf0JfFSHaEofE37-32" value="" style="endArrow=none;dashed=1;html=1;rounded=0;" edge="1" parent="1">
          <mxGeometry width="50" height="50" relative="1" as="geometry">
            <mxPoint x="180" y="700" as="sourcePoint" />
            <mxPoint x="870" y="700" as="targetPoint" />
          </mxGeometry>
        </mxCell>
        <mxCell id="9-opfvf0JfFSHaEofE37-33" value="" style="endArrow=none;dashed=1;html=1;rounded=0;" edge="1" parent="1">
          <mxGeometry width="50" height="50" relative="1" as="geometry">
            <mxPoint x="180" y="120" as="sourcePoint" />
            <mxPoint x="870" y="120" as="targetPoint" />
          </mxGeometry>
        </mxCell>
        <mxCell id="9-opfvf0JfFSHaEofE37-34" value="&lt;font style=&quot;font-size: 14px;&quot;&gt;WI-fi&lt;/font&gt;" style="edgeLabel;html=1;align=center;verticalAlign=middle;resizable=0;points=[];" vertex="1" connectable="0" parent="1">
          <mxGeometry x="550" y="410" as="geometry" />
        </mxCell>
      </root>
    </mxGraphModel>
  </diagram>
</mxfile>
